<?xml version="1.0" standalone="no"?>
<!DOCTYPE svg PUBLIC "-//W3C//DTD SVG 20010904//EN"
 "http://www.w3.org/TR/2001/REC-SVG-20010904/DTD/svg10.dtd">
<svg version="1.0" xmlns="http://www.w3.org/2000/svg"
 width="1628.000000pt" height="1628.000000pt" viewBox="0 0 1628.000000 1628.000000"
 preserveAspectRatio="xMidYMid meet">
<metadata>
Created by potrace 1.14, written by Peter Selinger 2001-2017
</metadata>
<g transform="translate(0.000000,1628.000000) scale(0.100000,-0.100000)"
fill="#000000" stroke="none">
<path d="M8457 13964 c-1 -1 -36 -4 -79 -8 -194 -16 -393 -98 -548 -225 -77
-63 -140 -130 -212 -222 -34 -43 -66 -79 -72 -80 -6 0 -49 -2 -96 -4 -108 -3
-296 -14 -341 -19 -19 -2 -65 -7 -104 -11 -38 -3 -81 -8 -95 -10 -14 -2 -45
-7 -70 -10 -78 -11 -198 -30 -250 -40 -14 -3 -38 -8 -55 -11 -16 -3 -34 -7
-40 -8 -11 -3 -81 -17 -105 -21 -8 -2 -44 -11 -80 -20 -36 -9 -72 -18 -80 -20
-131 -26 -428 -123 -680 -222 -152 -59 -516 -233 -670 -318 -98 -56 -284 -171
-390 -244 -104 -71 -357 -258 -380 -281 -3 -3 -48 -41 -100 -85 -124 -104
-176 -153 -334 -310 -165 -165 -288 -301 -396 -439 -8 -10 -27 -33 -41 -50
-54 -64 -198 -266 -281 -391 -225 -344 -426 -740 -555 -1095 -48 -130 -104
-292 -108 -311 -2 -9 -13 -46 -24 -84 -12 -37 -23 -77 -25 -89 -3 -11 -14 -57
-26 -101 -12 -44 -23 -91 -26 -104 -3 -12 -11 -51 -19 -85 -8 -33 -16 -74 -19
-91 -3 -16 -8 -41 -11 -55 -2 -13 -7 -40 -10 -60 -5 -34 -7 -47 -19 -110 -3
-14 -8 -50 -11 -80 -3 -30 -8 -62 -10 -70 -2 -8 -7 -46 -10 -85 -4 -38 -9 -83
-10 -100 -15 -149 -19 -262 -19 -520 0 -255 8 -475 19 -535 1 -8 6 -53 10
-100 4 -47 8 -87 10 -90 2 -3 6 -30 10 -60 20 -178 86 -489 152 -724 101 -363
246 -733 413 -1051 100 -191 174 -317 299 -510 97 -149 328 -454 431 -570 15
-16 49 -55 76 -85 86 -98 376 -383 484 -476 261 -224 523 -415 775 -564 50
-29 101 -60 115 -69 72 -45 289 -157 430 -221 187 -85 184 -84 290 -125 227
-88 564 -195 730 -230 8 -2 46 -11 83 -20 95 -22 306 -61 403 -74 44 -7 89
-13 100 -15 10 -2 51 -7 89 -10 39 -4 86 -9 106 -11 108 -14 235 -18 514 -19
316 0 452 6 635 29 25 3 65 8 90 10 25 3 54 7 65 9 11 2 43 7 70 10 28 4 57 9
65 11 8 2 31 6 50 9 381 60 910 220 1295 394 194 87 644 325 665 352 7 8 191
119 260 157 l55 29 80 -17 c44 -10 100 -23 125 -29 25 -6 56 -13 70 -15 14 -2
77 -16 140 -30 227 -51 806 -178 845 -186 58 -11 542 -117 590 -129 22 -5 144
-32 270 -60 435 -95 413 -92 453 -73 36 17 56 48 66 103 3 19 8 46 11 60 3 14
9 50 15 80 6 30 12 64 14 75 2 11 7 40 12 65 4 25 8 47 9 50 1 3 5 25 9 50 5
25 10 54 12 65 13 65 37 194 40 215 8 46 40 218 49 260 2 14 7 39 10 55 2 17
16 91 30 165 14 74 28 149 31 165 6 38 35 194 40 220 3 11 7 35 10 54 3 18 8
43 10 55 2 11 7 35 9 51 3 17 12 64 20 105 8 41 16 86 19 100 2 14 7 41 11 60
3 19 7 42 9 50 2 8 6 31 9 50 4 19 9 46 12 60 2 14 6 37 9 53 3 15 10 53 16
85 6 31 12 68 15 82 3 14 8 39 10 55 3 17 12 64 20 105 8 41 17 91 20 110 6
37 73 390 80 425 2 11 7 37 10 58 3 21 12 71 20 110 7 40 19 99 25 132 5 33
12 69 14 80 23 122 46 247 51 275 3 19 12 69 20 110 8 41 17 91 20 110 4 19
10 53 15 75 17 71 12 102 -20 139 -31 34 -28 34 -165 51 -11 2 -45 6 -75 9
-30 4 -71 9 -91 12 -20 2 -52 7 -70 9 -19 2 -50 6 -69 9 -59 8 -123 16 -167
21 -108 13 -181 22 -233 30 -14 2 -50 6 -80 10 -30 3 -64 7 -75 10 -11 2 -28
4 -38 4 -15 1 -17 7 -13 39 3 20 8 66 11 102 3 36 8 79 10 95 21 175 21 674 0
915 -2 25 -7 78 -10 118 -4 40 -8 83 -10 94 -3 12 -7 44 -10 72 -3 28 -7 58
-10 66 -2 8 -6 38 -10 65 -3 28 -8 61 -10 75 -8 39 -14 71 -25 130 -6 30 -12
64 -15 75 -2 11 -11 50 -19 87 -20 92 -83 326 -101 377 -8 23 -14 44 -14 46 1
11 -56 176 -106 310 -197 523 -468 1004 -819 1455 -135 173 -232 284 -416 473
-95 99 -324 312 -388 362 -14 11 -50 40 -81 65 -146 118 -350 268 -436 320
-22 13 -42 27 -45 30 -3 4 -12 10 -20 13 -8 4 -35 20 -60 36 -25 16 -90 55
-145 87 -55 31 -120 69 -145 84 -115 67 -399 199 -594 277 -80 32 -146 63
-146 70 0 23 -87 278 -116 339 -163 346 -417 494 -887 518 -26 1 -48 1 -50 0z"/>
</g>
</svg>
